<mxfile host="app.diagrams.net" modified="2022-04-01T19:25:35.645Z" agent="5.0 (Windows)" etag="NlLT5pIu1Vw_iRJMeSpN" version="17.3.0" type="github" pages="2">
  <diagram id="5V57vhzmCOw08JQ088Q4" name="entidad-relacion">
    <mxGraphModel dx="1378" dy="1919" grid="1" gridSize="10" guides="1" tooltips="1" connect="1" arrows="1" fold="1" page="1" pageScale="1" pageWidth="827" pageHeight="1169" math="0" shadow="0">
      <root>
        <mxCell id="0" />
        <mxCell id="1" parent="0" />
        <UserObject label="&lt;ul style=&quot;margin: 0px; padding-left: 10px;list-style-position: inside; list-style-type:disc&quot;&gt;&lt;li style=&quot;text-align:left;color:#333333;font-size:16.7px;&quot;&gt;&lt;span style=&quot;margin-left: 0px;margin-top: -2px;&quot;&gt;&lt;span style=&quot;font-size:16.7px;color:#333333;font-weight: bold;&quot;&gt;ID&lt;/span&gt;&lt;span style=&quot;font-size:16.7px;color:#333333;&quot;&gt;, Int(11), PK, NN, AI.&lt;/span&gt;&lt;/span&gt;&lt;/li&gt;&lt;li style=&quot;text-align:left;color:#333333;font-size:16.7px;&quot;&gt;&lt;span style=&quot;margin-left: 0px;margin-top: -2px;&quot;&gt;&lt;span style=&quot;font-size:16.7px;color:#333333;&quot;&gt;&lt;span style=&quot;font-size:16.7px;color:#333333;font-weight: bold;&quot;&gt;Nombre&lt;/span&gt;, Char(42), NN.&lt;/span&gt;&lt;/span&gt;&lt;/li&gt;&lt;li style=&quot;text-align:left;color:#333333;font-size:16.7px;&quot;&gt;&lt;span style=&quot;margin-left: 0px;margin-top: -2px;&quot;&gt;&lt;span style=&quot;font-size:16.7px;color:#333333;&quot;&gt;&lt;span style=&quot;font-size:16.7px;color:#333333;font-weight: bold;&quot;&gt;Apellido&lt;/span&gt;, Char(42), NN.&lt;/span&gt;&lt;/span&gt;&lt;/li&gt;&lt;li style=&quot;text-align:left;color:#333333;font-size:16.7px;&quot;&gt;&lt;span style=&quot;margin-left: 0px;margin-top: -2px;&quot;&gt;&lt;span style=&quot;font-size:16.7px;color:#333333;&quot;&gt;&lt;span style=&quot;font-size:16.7px;color:#333333;font-weight: bold;&quot;&gt;Correo&lt;/span&gt;, Char(42), NN.&lt;/span&gt;&lt;/span&gt;&lt;/li&gt;&lt;li style=&quot;text-align:left;color:#333333;font-size:16.7px;&quot;&gt;&lt;span style=&quot;margin-left: 0px;margin-top: -2px;&quot;&gt;&lt;span style=&quot;font-size:16.7px;color:#333333;&quot;&gt;&lt;span style=&quot;font-size:16.7px;color:#333333;font-weight: bold;&quot;&gt;Telefono&lt;/span&gt;, Char(42), NN.&lt;/span&gt;&lt;/span&gt;&lt;/li&gt;&lt;li style=&quot;text-align:left;color:#333333;font-size:16.7px;&quot;&gt;&lt;span style=&quot;margin-left: 0px;margin-top: -2px;&quot;&gt;&lt;span style=&quot;font-size:16.7px;color:#333333;&quot;&gt;&lt;span style=&quot;font-size:16.7px;color:#333333;font-weight: bold;&quot;&gt;Direccion&lt;/span&gt;, Char(42), NN.&lt;/span&gt;&lt;/span&gt;&lt;/li&gt;&lt;li style=&quot;text-align:left;color:#333333;font-size:16.7px;&quot;&gt;&lt;span style=&quot;margin-left: 0px;margin-top: -2px;&quot;&gt;&lt;span style=&quot;font-size:16.7px;color:#333333;&quot;&gt;&lt;span style=&quot;font-size:16.7px;color:#333333;font-weight: bold;&quot;&gt;Tipo de Usuario&lt;/span&gt;, Int(11), NN, FK.&lt;/span&gt;&lt;/span&gt;&lt;/li&gt;&lt;/ul&gt;" lucidchartObjectId="82R5v5Y6nEMr" id="hVVVExCG_ycvUPT3CRaz-2">
          <mxCell style="html=1;overflow=block;blockSpacing=1;whiteSpace=wrap;fontSize=13;spacing=3.8;strokeColor=#5e5e5e;strokeOpacity=100;rounded=1;absoluteArcSize=1;arcSize=9;strokeWidth=2.3;" parent="1" vertex="1">
            <mxGeometry x="508" y="45" width="165" height="288" as="geometry" />
          </mxCell>
        </UserObject>
        <UserObject label="USUARIO" lucidchartObjectId="qjS5tmdfZZHY" id="hVVVExCG_ycvUPT3CRaz-3">
          <mxCell style="html=1;overflow=block;blockSpacing=1;whiteSpace=wrap;fontSize=16.7;fontColor=#333333;align=center;spacing=3.8;strokeOpacity=0;fillOpacity=0;rounded=1;absoluteArcSize=1;arcSize=9;fillColor=#ffffff;strokeWidth=2.3;" parent="1" vertex="1">
            <mxGeometry x="501" y="7" width="180" height="45" as="geometry" />
          </mxCell>
        </UserObject>
        <UserObject label="&lt;ul style=&quot;margin: 0px; padding-left: 10px;list-style-position: inside; list-style-type:disc&quot;&gt;&lt;li style=&quot;text-align:left;color:#333333;font-size:16.7px;&quot;&gt;&lt;span style=&quot;margin-left: 0px;margin-top: -2px;&quot;&gt;&lt;span style=&quot;font-size:16.7px;color:#333333;font-weight: bold;&quot;&gt;ID&lt;/span&gt;&lt;span style=&quot;font-size:16.7px;color:#333333;&quot;&gt;, Int(11), PK, NN, AI.&lt;/span&gt;&lt;/span&gt;&lt;/li&gt;&lt;li style=&quot;text-align:left;color:#333333;font-size:16.7px;&quot;&gt;&lt;span style=&quot;margin-left: 0px;margin-top: -2px;&quot;&gt;&lt;span style=&quot;font-size:16.7px;color:#333333;&quot;&gt;&lt;span style=&quot;font-size:16.7px;color:#333333;font-weight: bold;&quot;&gt;Cargo&lt;/span&gt;, Char(42), NN.&lt;/span&gt;&lt;/span&gt;&lt;/li&gt;&lt;/ul&gt;" lucidchartObjectId="BkS5BK4X9ih0" id="hVVVExCG_ycvUPT3CRaz-4">
          <mxCell style="html=1;overflow=block;blockSpacing=1;whiteSpace=wrap;fontSize=13;spacing=3.8;strokeColor=#5e5e5e;strokeOpacity=100;rounded=1;absoluteArcSize=1;arcSize=9;strokeWidth=2.3;" parent="1" vertex="1">
            <mxGeometry x="801" y="130" width="135" height="124" as="geometry" />
          </mxCell>
        </UserObject>
        <UserObject label="" lucidchartObjectId="PoS5vKJQFFGj" id="hVVVExCG_ycvUPT3CRaz-5">
          <mxCell style="html=1;jettySize=18;whiteSpace=wrap;overflow=block;blockSpacing=1;fontSize=13;strokeColor=#5E5E5E;strokeWidth=1.5;rounded=1;arcSize=12;edgeStyle=orthogonalEdgeStyle;startArrow=ERmany;startSize=10;endArrow=ERmandOne;endSize=10;exitX=1.007;exitY=0.887;exitPerimeter=0;entryX=-0.008;entryY=0.234;entryPerimeter=0;" parent="1" source="hVVVExCG_ycvUPT3CRaz-2" target="hVVVExCG_ycvUPT3CRaz-4" edge="1">
            <mxGeometry width="100" height="100" relative="1" as="geometry">
              <Array as="points">
                <mxPoint x="720" y="300" />
                <mxPoint x="720" y="159" />
              </Array>
            </mxGeometry>
          </mxCell>
        </UserObject>
        <UserObject label="TIPO DE USUARIO" lucidchartObjectId="dpS5ng57Gb1t" id="hVVVExCG_ycvUPT3CRaz-6">
          <mxCell style="html=1;overflow=block;blockSpacing=1;whiteSpace=wrap;fontSize=16.7;fontColor=#333333;align=center;spacing=3.8;strokeOpacity=0;fillOpacity=0;rounded=1;absoluteArcSize=1;arcSize=9;fillColor=#ffffff;strokeWidth=2.3;" parent="1" vertex="1">
            <mxGeometry x="778" y="83" width="180" height="48" as="geometry" />
          </mxCell>
        </UserObject>
        <UserObject label="&lt;ul style=&quot;margin: 0px; padding-left: 10px;list-style-position: inside; list-style-type:disc&quot;&gt;&lt;li style=&quot;text-align:left;color:#333333;font-size:16.7px;&quot;&gt;&lt;span style=&quot;margin-left: 0px;margin-top: -2px;&quot;&gt;&lt;span style=&quot;font-size:16.7px;color:#333333;font-weight: bold;&quot;&gt;ID&lt;/span&gt;&lt;span style=&quot;font-size:16.7px;color:#333333;&quot;&gt;, Int(11), PK, NN, AI.&lt;/span&gt;&lt;/span&gt;&lt;/li&gt;&lt;li style=&quot;text-align:left;color:#333333;font-size:16.7px;&quot;&gt;&lt;span style=&quot;margin-left: 0px;margin-top: -2px;&quot;&gt;&lt;span style=&quot;font-size:16.7px;color:#333333;&quot;&gt;&lt;span style=&quot;font-size:16.7px;color:#333333;font-weight: bold;&quot;&gt;Nombre de Distrito&lt;/span&gt;, Char(42), NN.&lt;/span&gt;&lt;/span&gt;&lt;/li&gt;&lt;li style=&quot;text-align:left;color:#333333;font-size:16.7px;&quot;&gt;&lt;span style=&quot;margin-left: 0px;margin-top: -2px;&quot;&gt;&lt;span style=&quot;font-size:16.7px;color:#333333;&quot;&gt;&lt;span style=&quot;font-size:16.7px;color:#333333;font-weight: bold;&quot;&gt;Direccion&lt;/span&gt;, Char(42), NN.&lt;/span&gt;&lt;/span&gt;&lt;/li&gt;&lt;li style=&quot;text-align:left;color:#333333;font-size:16.7px;&quot;&gt;&lt;span style=&quot;margin-left: 0px;margin-top: -2px;&quot;&gt;&lt;span style=&quot;font-size:16.7px;color:#333333;&quot;&gt;&lt;span style=&quot;font-size:16.7px;color:#333333;font-weight: bold;&quot;&gt;ID usuario&lt;/span&gt;, Int(11), NN, FK.&lt;/span&gt;&lt;/span&gt;&lt;/li&gt;&lt;/ul&gt;" lucidchartObjectId="DsS5bMqgoHQG" id="hVVVExCG_ycvUPT3CRaz-7">
          <mxCell style="html=1;overflow=block;blockSpacing=1;whiteSpace=wrap;fontSize=13;spacing=3.8;strokeColor=#5e5e5e;strokeOpacity=100;rounded=1;absoluteArcSize=1;arcSize=9;strokeWidth=2.3;" parent="1" vertex="1">
            <mxGeometry x="118" y="420" width="150" height="192" as="geometry" />
          </mxCell>
        </UserObject>
        <UserObject label="&lt;ul style=&quot;margin: 0px; padding-left: 10px;list-style-position: inside; list-style-type:disc&quot;&gt;&lt;li style=&quot;text-align:left;color:#333333;font-size:16.7px;&quot;&gt;&lt;span style=&quot;margin-left: 0px;margin-top: -2px;&quot;&gt;&lt;span style=&quot;font-size:16.7px;color:#333333;font-weight: bold;&quot;&gt;ID&lt;/span&gt;&lt;span style=&quot;font-size:16.7px;color:#333333;&quot;&gt;, Int(11), PK, NN, AI.&lt;/span&gt;&lt;/span&gt;&lt;/li&gt;&lt;li style=&quot;text-align:left;color:#333333;font-size:16.7px;&quot;&gt;&lt;span style=&quot;margin-left: 0px;margin-top: -2px;&quot;&gt;&lt;span style=&quot;font-size:16.7px;color:#333333;&quot;&gt;&lt;span style=&quot;font-size:16.7px;color:#333333;font-weight: bold;&quot;&gt;Nombre de Zona&lt;/span&gt;, Char(42), NN.&lt;/span&gt;&lt;/span&gt;&lt;/li&gt;&lt;li style=&quot;text-align:left;color:#333333;font-size:16.7px;&quot;&gt;&lt;span style=&quot;margin-left: 0px;margin-top: -2px;&quot;&gt;&lt;span style=&quot;font-size:16.7px;color:#333333;&quot;&gt;&lt;span style=&quot;font-size:16.7px;color:#333333;font-weight: bold;&quot;&gt;Direccion&lt;/span&gt;, Char(42), NN.&lt;/span&gt;&lt;/span&gt;&lt;/li&gt;&lt;li style=&quot;text-align:left;color:#333333;font-size:16.7px;&quot;&gt;&lt;span style=&quot;margin-left: 0px;margin-top: -2px;&quot;&gt;&lt;span style=&quot;font-size:16.7px;color:#333333;&quot;&gt;&lt;span style=&quot;font-size:16.7px;color:#333333;font-weight: bold;&quot;&gt;ID usuario&lt;/span&gt;, Int(11), NN, FK.&lt;/span&gt;&lt;/span&gt;&lt;/li&gt;&lt;li style=&quot;text-align:left;color:#333333;font-size:16.7px;&quot;&gt;&lt;span style=&quot;margin-left: 0px;margin-top: -2px;&quot;&gt;&lt;span style=&quot;font-size:16.7px;color:#333333;&quot;&gt;&lt;span style=&quot;font-size:16.7px;color:#333333;font-weight: bold;&quot;&gt;ID distrito&lt;/span&gt;, Int(11), NN, FK.&lt;/span&gt;&lt;/span&gt;&lt;/li&gt;&lt;/ul&gt;" lucidchartObjectId="GsS5qm4cpJs9" id="hVVVExCG_ycvUPT3CRaz-8">
          <mxCell style="html=1;overflow=block;blockSpacing=1;whiteSpace=wrap;fontSize=13;spacing=3.8;strokeColor=#5e5e5e;strokeOpacity=100;rounded=1;absoluteArcSize=1;arcSize=9;strokeWidth=2.3;" parent="1" vertex="1">
            <mxGeometry x="343" y="420" width="150" height="228" as="geometry" />
          </mxCell>
        </UserObject>
        <UserObject label="DISTRITO" lucidchartObjectId="WsS5c-uOvpQ1" id="hVVVExCG_ycvUPT3CRaz-9">
          <mxCell style="html=1;overflow=block;blockSpacing=1;whiteSpace=wrap;fontSize=16.7;fontColor=#333333;align=center;spacing=3.8;strokeOpacity=0;fillOpacity=0;rounded=1;absoluteArcSize=1;arcSize=9;fillColor=#ffffff;strokeWidth=2.3;" parent="1" vertex="1">
            <mxGeometry x="103" y="375" width="180" height="45" as="geometry" />
          </mxCell>
        </UserObject>
        <UserObject label="ZONA" lucidchartObjectId="_sS5B_wUu1G-" id="hVVVExCG_ycvUPT3CRaz-10">
          <mxCell style="html=1;overflow=block;blockSpacing=1;whiteSpace=wrap;fontSize=16.7;fontColor=#333333;align=center;spacing=3.8;strokeOpacity=0;fillOpacity=0;rounded=1;absoluteArcSize=1;arcSize=9;fillColor=#ffffff;strokeWidth=2.3;" parent="1" vertex="1">
            <mxGeometry x="328" y="375" width="180" height="45" as="geometry" />
          </mxCell>
        </UserObject>
        <UserObject label="&lt;ul style=&quot;margin: 0px; padding-left: 10px;list-style-position: inside; list-style-type:disc&quot;&gt;&lt;li style=&quot;text-align:left;color:#333333;font-size:16.7px;&quot;&gt;&lt;span style=&quot;margin-left: 0px;margin-top: -2px;&quot;&gt;&lt;span style=&quot;font-size:16.7px;color:#333333;font-weight: bold;&quot;&gt;ID&lt;/span&gt;&lt;span style=&quot;font-size:16.7px;color:#333333;&quot;&gt;, Int(11), PK, NN, AI.&lt;/span&gt;&lt;/span&gt;&lt;/li&gt;&lt;li style=&quot;text-align:left;color:#333333;font-size:16.7px;&quot;&gt;&lt;span style=&quot;margin-left: 0px;margin-top: -2px;&quot;&gt;&lt;span style=&quot;font-size:16.7px;color:#333333;&quot;&gt;&lt;span style=&quot;font-size:16.7px;color:#333333;font-weight: bold;&quot;&gt;Nombre de Sector&lt;/span&gt;, Char(42), NN.&lt;/span&gt;&lt;/span&gt;&lt;/li&gt;&lt;li style=&quot;text-align:left;color:#333333;font-size:16.7px;&quot;&gt;&lt;span style=&quot;margin-left: 0px;margin-top: -2px;&quot;&gt;&lt;span style=&quot;font-size:16.7px;color:#333333;&quot;&gt;&lt;span style=&quot;font-size:16.7px;color:#333333;font-weight: bold;&quot;&gt;Direccion&lt;/span&gt;, Char(42), NN.&lt;/span&gt;&lt;/span&gt;&lt;/li&gt;&lt;li style=&quot;text-align:left;color:#333333;font-size:16.7px;&quot;&gt;&lt;span style=&quot;margin-left: 0px;margin-top: -2px;&quot;&gt;&lt;span style=&quot;font-size:16.7px;color:#333333;&quot;&gt;&lt;span style=&quot;font-size:16.7px;color:#333333;font-weight: bold;&quot;&gt;ID usuario&lt;/span&gt;, Int(11), NN, FK.&lt;/span&gt;&lt;/span&gt;&lt;/li&gt;&lt;li style=&quot;text-align:left;color:#333333;font-size:16.7px;&quot;&gt;&lt;span style=&quot;margin-left: 0px;margin-top: -2px;&quot;&gt;&lt;span style=&quot;font-size:16.7px;color:#333333;&quot;&gt;&lt;span style=&quot;font-size:16.7px;color:#333333;&quot;&gt;I&lt;/span&gt;&lt;span style=&quot;font-size:16.7px;color:#333333;font-weight: bold;&quot;&gt;D zona&lt;/span&gt;, Int(11), NN, FK.&lt;/span&gt;&lt;/span&gt;&lt;/li&gt;&lt;/ul&gt;" lucidchartObjectId="ntS5eAR_kkg8" id="hVVVExCG_ycvUPT3CRaz-11">
          <mxCell style="html=1;overflow=block;blockSpacing=1;whiteSpace=wrap;fontSize=13;spacing=3.8;strokeColor=#5e5e5e;strokeOpacity=100;rounded=1;absoluteArcSize=1;arcSize=9;strokeWidth=2.3;" parent="1" vertex="1">
            <mxGeometry x="568" y="420" width="150" height="228" as="geometry" />
          </mxCell>
        </UserObject>
        <UserObject label="SECTOR" lucidchartObjectId="0tS5DzOwYZir" id="hVVVExCG_ycvUPT3CRaz-12">
          <mxCell style="html=1;overflow=block;blockSpacing=1;whiteSpace=wrap;fontSize=16.7;fontColor=#333333;align=center;spacing=3.8;strokeOpacity=0;fillOpacity=0;rounded=1;absoluteArcSize=1;arcSize=9;fillColor=#ffffff;strokeWidth=2.3;" parent="1" vertex="1">
            <mxGeometry x="553" y="375" width="180" height="45" as="geometry" />
          </mxCell>
        </UserObject>
        <UserObject label="&lt;ul style=&quot;margin: 0px; padding-left: 10px;list-style-position: inside; list-style-type:disc&quot;&gt;&lt;li style=&quot;text-align:left;color:#333333;font-size:16.7px;&quot;&gt;&lt;span style=&quot;margin-left: 0px;margin-top: -2px;&quot;&gt;&lt;span style=&quot;font-size:16.7px;color:#333333;font-weight: bold;&quot;&gt;ID&lt;/span&gt;&lt;span style=&quot;font-size:16.7px;color:#333333;&quot;&gt;, Int(11), PK, NN, AI.&lt;/span&gt;&lt;/span&gt;&lt;/li&gt;&lt;li style=&quot;text-align:left;color:#333333;font-size:16.7px;&quot;&gt;&lt;span style=&quot;margin-left: 0px;margin-top: -2px;&quot;&gt;&lt;span style=&quot;font-size:16.7px;color:#333333;&quot;&gt;&lt;span style=&quot;font-size:16.7px;color:#333333;font-weight: bold;&quot;&gt;Nombre de Celula&lt;/span&gt;, Char(42), NN.&lt;/span&gt;&lt;/span&gt;&lt;/li&gt;&lt;li style=&quot;text-align:left;color:#333333;font-size:16.7px;&quot;&gt;&lt;span style=&quot;margin-left: 0px;margin-top: -2px;&quot;&gt;&lt;span style=&quot;font-size:16.7px;color:#333333;&quot;&gt;&lt;span style=&quot;font-size:16.7px;color:#333333;font-weight: bold;&quot;&gt;Direccion&lt;/span&gt;, Char(42), NN.&lt;/span&gt;&lt;/span&gt;&lt;/li&gt;&lt;li style=&quot;text-align:left;color:#333333;font-size:16.7px;&quot;&gt;&lt;span style=&quot;margin-left: 0px;margin-top: -2px;&quot;&gt;&lt;span style=&quot;font-size:16.7px;color:#333333;&quot;&gt;&lt;span style=&quot;font-size:16.7px;color:#333333;font-weight: bold;&quot;&gt;ID usuario&lt;/span&gt;, Int(11), NN, FK.&lt;/span&gt;&lt;/span&gt;&lt;/li&gt;&lt;li style=&quot;text-align:left;color:#333333;font-size:16.7px;&quot;&gt;&lt;span style=&quot;margin-left: 0px;margin-top: -2px;&quot;&gt;&lt;span style=&quot;font-size:16.7px;color:#333333;&quot;&gt;&lt;span style=&quot;font-size:16.7px;color:#333333;font-weight: bold;&quot;&gt;ID Sector&lt;/span&gt;, Int(11), NN, FK.&lt;/span&gt;&lt;/span&gt;&lt;/li&gt;&lt;/ul&gt;" lucidchartObjectId="duS5OvGpFjz5" id="hVVVExCG_ycvUPT3CRaz-13">
          <mxCell style="html=1;overflow=block;blockSpacing=1;whiteSpace=wrap;fontSize=13;spacing=3.8;strokeColor=#5e5e5e;strokeOpacity=100;rounded=1;absoluteArcSize=1;arcSize=9;strokeWidth=2.3;" parent="1" vertex="1">
            <mxGeometry x="793" y="420" width="150" height="228" as="geometry" />
          </mxCell>
        </UserObject>
        <UserObject label="CELULA" lucidchartObjectId="muS5HW5V1hs6" id="hVVVExCG_ycvUPT3CRaz-14">
          <mxCell style="html=1;overflow=block;blockSpacing=1;whiteSpace=wrap;fontSize=16.7;fontColor=#333333;align=center;spacing=3.8;strokeOpacity=0;fillOpacity=0;rounded=1;absoluteArcSize=1;arcSize=9;fillColor=#ffffff;strokeWidth=2.3;" parent="1" vertex="1">
            <mxGeometry x="778" y="375" width="180" height="45" as="geometry" />
          </mxCell>
        </UserObject>
        <UserObject label="" lucidchartObjectId="jES5g3Nga3S5" id="hVVVExCG_ycvUPT3CRaz-15">
          <mxCell style="html=1;jettySize=18;whiteSpace=wrap;overflow=block;blockSpacing=1;fontSize=13;strokeColor=#5E5E5E;strokeWidth=1.5;rounded=1;arcSize=12;edgeStyle=orthogonalEdgeStyle;startArrow=block;startFill=1;endArrow=block;endFill=1;exitX=-0.007;exitY=0.821;exitPerimeter=0;entryX=-0.007;entryY=0.054;entryPerimeter=0;" parent="1" source="hVVVExCG_ycvUPT3CRaz-7" target="hVVVExCG_ycvUPT3CRaz-2" edge="1">
            <mxGeometry width="100" height="100" relative="1" as="geometry">
              <Array as="points">
                <mxPoint x="100" y="578" />
                <mxPoint x="100" y="61" />
              </Array>
            </mxGeometry>
          </mxCell>
        </UserObject>
        <UserObject label="" lucidchartObjectId="xFS5GqGM_.Y_" id="hVVVExCG_ycvUPT3CRaz-16">
          <mxCell style="html=1;jettySize=18;whiteSpace=wrap;overflow=block;blockSpacing=1;fontSize=13;strokeColor=#5E5E5E;strokeWidth=1.5;rounded=1;arcSize=12;edgeStyle=orthogonalEdgeStyle;startArrow=block;startFill=1;endArrow=block;endFill=1;exitX=-0.007;exitY=0.681;exitPerimeter=0;entryX=-0.007;entryY=0.054;entryPerimeter=0;" parent="1" source="hVVVExCG_ycvUPT3CRaz-8" target="hVVVExCG_ycvUPT3CRaz-2" edge="1">
            <mxGeometry width="100" height="100" relative="1" as="geometry">
              <Array as="points">
                <mxPoint x="325" y="575" />
                <mxPoint x="325" y="61" />
              </Array>
            </mxGeometry>
          </mxCell>
        </UserObject>
        <UserObject label="" lucidchartObjectId="0GS5aTeJqF3n" id="hVVVExCG_ycvUPT3CRaz-17">
          <mxCell style="html=1;jettySize=18;whiteSpace=wrap;overflow=block;blockSpacing=1;fontSize=13;strokeColor=#5E5E5E;strokeWidth=1.5;rounded=1;arcSize=12;edgeStyle=orthogonalEdgeStyle;startArrow=block;startFill=1;endArrow=block;endFill=1;exitX=1.008;exitY=0.707;exitPerimeter=0;entryX=1.007;entryY=0.062;entryPerimeter=0;" parent="1" source="hVVVExCG_ycvUPT3CRaz-11" target="hVVVExCG_ycvUPT3CRaz-2" edge="1">
            <mxGeometry width="100" height="100" relative="1" as="geometry">
              <Array as="points">
                <mxPoint x="740" y="581" />
                <mxPoint x="740" y="63" />
              </Array>
            </mxGeometry>
          </mxCell>
        </UserObject>
        <UserObject label="" lucidchartObjectId="9HS5nQN5cFxQ" id="hVVVExCG_ycvUPT3CRaz-18">
          <mxCell style="html=1;jettySize=18;whiteSpace=wrap;overflow=block;blockSpacing=1;fontSize=13;strokeColor=#5E5E5E;strokeWidth=1.5;rounded=1;arcSize=12;edgeStyle=orthogonalEdgeStyle;startArrow=block;startFill=1;endArrow=block;endFill=1;exitX=1.008;exitY=0.696;exitPerimeter=0;entryX=1.007;entryY=0.062;entryPerimeter=0;" parent="1" source="hVVVExCG_ycvUPT3CRaz-13" target="hVVVExCG_ycvUPT3CRaz-2" edge="1">
            <mxGeometry width="100" height="100" relative="1" as="geometry">
              <Array as="points">
                <mxPoint x="974" y="579" />
                <mxPoint x="974" y="63" />
              </Array>
            </mxGeometry>
          </mxCell>
        </UserObject>
        <UserObject label="" lucidchartObjectId="iNS5FCsrRyf~" id="hVVVExCG_ycvUPT3CRaz-19">
          <mxCell style="html=1;jettySize=18;whiteSpace=wrap;overflow=block;blockSpacing=1;fontSize=13;strokeColor=#5E5E5E;strokeWidth=1.5;rounded=1;arcSize=12;edgeStyle=orthogonalEdgeStyle;startArrow=ERmandOne;startSize=10;endArrow=ERoneToMany;endSize=10;exitX=1.008;exitY=0.087;exitPerimeter=0;entryX=-0.007;entryY=0.857;entryPerimeter=0;" parent="1" source="hVVVExCG_ycvUPT3CRaz-7" target="hVVVExCG_ycvUPT3CRaz-8" edge="1">
            <mxGeometry width="100" height="100" relative="1" as="geometry">
              <Array as="points" />
            </mxGeometry>
          </mxCell>
        </UserObject>
        <UserObject label="" lucidchartObjectId="rNS5x-lfrkO8" id="hVVVExCG_ycvUPT3CRaz-20">
          <mxCell style="html=1;jettySize=18;whiteSpace=wrap;overflow=block;blockSpacing=1;fontSize=13;strokeColor=#5E5E5E;strokeWidth=1.5;rounded=1;arcSize=12;edgeStyle=orthogonalEdgeStyle;startArrow=ERmandOne;startSize=10;endArrow=ERoneToMany;endSize=10;exitX=1.008;exitY=0.112;exitPerimeter=0;entryX=-0.007;entryY=0.853;entryPerimeter=0;" parent="1" source="hVVVExCG_ycvUPT3CRaz-8" target="hVVVExCG_ycvUPT3CRaz-11" edge="1">
            <mxGeometry width="100" height="100" relative="1" as="geometry">
              <Array as="points" />
            </mxGeometry>
          </mxCell>
        </UserObject>
        <UserObject label="" lucidchartObjectId="yNS5OGtcH84g" id="hVVVExCG_ycvUPT3CRaz-21">
          <mxCell style="html=1;jettySize=18;whiteSpace=wrap;overflow=block;blockSpacing=1;fontSize=13;strokeColor=#5E5E5E;strokeWidth=1.5;rounded=1;arcSize=12;edgeStyle=orthogonalEdgeStyle;startArrow=ERmandOne;startSize=10;endArrow=ERoneToMany;endSize=10;exitX=1.008;exitY=0.091;exitPerimeter=0;entryX=-0.008;entryY=0.854;entryPerimeter=0;" parent="1" source="hVVVExCG_ycvUPT3CRaz-11" target="hVVVExCG_ycvUPT3CRaz-13" edge="1">
            <mxGeometry width="100" height="100" relative="1" as="geometry">
              <Array as="points" />
            </mxGeometry>
          </mxCell>
        </UserObject>
        <UserObject label="&lt;ul style=&quot;margin: 0px; padding-left: 10px;list-style-position: inside; list-style-type:disc&quot;&gt;&lt;li style=&quot;text-align:left;color:#333333;font-size:16.7px;&quot;&gt;&lt;span style=&quot;margin-left: 0px;margin-top: -2px;&quot;&gt;&lt;span style=&quot;font-size:16.7px;color:#333333;font-weight: bold;&quot;&gt;ID&lt;/span&gt;&lt;span style=&quot;font-size:16.7px;color:#333333;&quot;&gt;, Int(11), PK, NN, AI.&lt;/span&gt;&lt;/span&gt;&lt;/li&gt;&lt;li style=&quot;text-align:left;color:#333333;font-size:16.7px;&quot;&gt;&lt;span style=&quot;margin-left: 0px;margin-top: -2px;&quot;&gt;&lt;span style=&quot;font-size:16.7px;color:#333333;&quot;&gt;&lt;span style=&quot;font-size:16.7px;color:#333333;font-weight: bold;&quot;&gt;Nombre&lt;/span&gt;, Char(42), NN.&lt;/span&gt;&lt;/span&gt;&lt;/li&gt;&lt;li style=&quot;text-align:left;color:#333333;font-size:16.7px;&quot;&gt;&lt;span style=&quot;margin-left: 0px;margin-top: -2px;&quot;&gt;&lt;span style=&quot;font-size:16.7px;color:#333333;&quot;&gt;&lt;span style=&quot;font-size:16.7px;color:#333333;font-weight: bold;&quot;&gt;Estado Civil&lt;/span&gt;, ENUM(&#39;Soltero&#39;, &#39;Casado&#39;), NN.&lt;/span&gt;&lt;/span&gt;&lt;/li&gt;&lt;li style=&quot;text-align:left;color:#333333;font-size:16.7px;&quot;&gt;&lt;span style=&quot;margin-left: 0px;margin-top: -2px;&quot;&gt;&lt;span style=&quot;font-size:16.7px;color:#333333;&quot;&gt;&lt;span style=&quot;font-size:16.7px;color:#333333;font-weight: bold;&quot;&gt;Conversion&lt;/span&gt;, ENUM(&#39;Si&#39;,&#39;No&#39;), NN.&lt;/span&gt;&lt;/span&gt;&lt;/li&gt;&lt;li style=&quot;text-align:left;color:#333333;font-size:16.7px;&quot;&gt;&lt;span style=&quot;margin-left: 0px;margin-top: -2px;&quot;&gt;&lt;span style=&quot;font-size:16.7px;color:#333333;&quot;&gt;&lt;span style=&quot;font-size:16.7px;color:#333333;font-weight: bold;&quot;&gt;Bautismo&lt;/span&gt;, ENUM(&#39;Agua&#39;,&#39;E.S.&#39;), NN.&lt;/span&gt;&lt;/span&gt;&lt;/li&gt;&lt;li style=&quot;text-align:left;color:#333333;font-size:16.7px;&quot;&gt;&lt;span style=&quot;margin-left: 0px;margin-top: -2px;&quot;&gt;&lt;span style=&quot;font-size:16.7px;color:#333333;&quot;&gt;&lt;span style=&quot;font-size:16.7px;color:#333333;font-weight: bold;&quot;&gt;Nacimiento&lt;/span&gt;, Fecha, NN.&lt;/span&gt;&lt;/span&gt;&lt;/li&gt;&lt;li style=&quot;text-align:left;color:#333333;font-size:16.7px;&quot;&gt;&lt;span style=&quot;margin-left: 0px;margin-top: -2px;&quot;&gt;&lt;span style=&quot;font-size:16.7px;color:#333333;&quot;&gt;&lt;span style=&quot;font-size:16.7px;color:#333333;font-weight: bold;&quot;&gt;Direccion&lt;/span&gt;, Char(42), NN.&lt;/span&gt;&lt;/span&gt;&lt;/li&gt;&lt;li style=&quot;text-align:left;color:#333333;font-size:16.7px;&quot;&gt;&lt;span style=&quot;margin-left: 0px;margin-top: -2px;&quot;&gt;&lt;span style=&quot;font-size:16.7px;color:#333333;&quot;&gt;&lt;span style=&quot;font-size:16.7px;color:#333333;font-weight: bold;&quot;&gt;Telefono&lt;/span&gt;, Char(42), NN.&lt;/span&gt;&lt;/span&gt;&lt;/li&gt;&lt;li style=&quot;text-align:left;color:#333333;font-size:16.7px;&quot;&gt;&lt;span style=&quot;margin-left: 0px;margin-top: -2px;&quot;&gt;&lt;span style=&quot;font-size:16.7px;color:#333333;&quot;&gt;&lt;span style=&quot;font-size:16.7px;color:#333333;font-weight: bold;&quot;&gt;ID celula&lt;/span&gt;, Int(11), NN, FK.&lt;/span&gt;&lt;/span&gt;&lt;/li&gt;&lt;li style=&quot;text-align:left;color:#333333;font-size:16.7px;&quot;&gt;&lt;span style=&quot;margin-left: 0px;margin-top: -2px;&quot;&gt;&lt;span style=&quot;font-size:16.7px;color:#333333;&quot;&gt;&lt;span style=&quot;font-size:16.7px;color:#333333;font-weight: bold;&quot;&gt;Estado,&lt;/span&gt;ENUM(&#39;Pendiente&#39;, &#39;estable&#39;)&lt;/span&gt;&lt;/span&gt;&lt;/li&gt;&lt;/ul&gt;" lucidchartObjectId="M2S5LgVkmGf-" id="hVVVExCG_ycvUPT3CRaz-22">
          <mxCell style="html=1;overflow=block;blockSpacing=1;whiteSpace=wrap;fontSize=13;spacing=3.8;strokeColor=#5e5e5e;strokeOpacity=100;rounded=1;absoluteArcSize=1;arcSize=9;strokeWidth=2.3;" parent="1" vertex="1">
            <mxGeometry x="1290" y="77" width="235" height="343" as="geometry" />
          </mxCell>
        </UserObject>
        <UserObject label="MIEMBROS DE CELULA" lucidchartObjectId="_HZ59CrG-kDr" id="hVVVExCG_ycvUPT3CRaz-23">
          <mxCell style="html=1;overflow=block;blockSpacing=1;whiteSpace=wrap;fontSize=16.7;fontColor=#333333;align=center;spacing=3.8;strokeOpacity=0;fillOpacity=0;rounded=1;absoluteArcSize=1;arcSize=9;fillColor=#ffffff;strokeWidth=2.3;" parent="1" vertex="1">
            <mxGeometry x="1310" y="15" width="180" height="48" as="geometry" />
          </mxCell>
        </UserObject>
        <UserObject label="" lucidchartObjectId="9IZ5y9N6FKIM" id="hVVVExCG_ycvUPT3CRaz-24">
          <mxCell style="html=1;jettySize=18;whiteSpace=wrap;overflow=block;blockSpacing=1;fontSize=13;strokeColor=#5E5E5E;strokeWidth=1.5;rounded=1;arcSize=12;edgeStyle=orthogonalEdgeStyle;startArrow=ERmandOne;startSize=10;endArrow=ERoneToMany;endSize=10;exitX=1.008;exitY=0.08;exitPerimeter=0;entryX=-0.005;entryY=0.79;entryPerimeter=0;" parent="1" source="hVVVExCG_ycvUPT3CRaz-13" target="hVVVExCG_ycvUPT3CRaz-22" edge="1">
            <mxGeometry width="100" height="100" relative="1" as="geometry">
              <Array as="points" />
            </mxGeometry>
          </mxCell>
        </UserObject>
        <UserObject label="DOCUMENTOS CELULAS" lucidchartObjectId="IOZ5YCxjKSTB" id="hVVVExCG_ycvUPT3CRaz-25">
          <mxCell style="html=1;overflow=block;blockSpacing=1;whiteSpace=wrap;fontSize=30;fontColor=#333333;fontStyle=1;align=center;spacing=3.8;strokeOpacity=0;fillOpacity=0;rounded=1;absoluteArcSize=1;arcSize=9;fillColor=#ffffff;strokeWidth=2.3;" parent="1" vertex="1">
            <mxGeometry x="1662" y="-60" width="465" height="70" as="geometry" />
          </mxCell>
        </UserObject>
        <UserObject label="&lt;ul style=&quot;margin: 0px; padding-left: 10px;list-style-position: inside; list-style-type:disc&quot;&gt;&lt;li style=&quot;text-align:left;color:#333333;font-size:16.7px;&quot;&gt;&lt;span style=&quot;margin-left: 0px;margin-top: -2px;&quot;&gt;&lt;span style=&quot;font-size:16.7px;color:#333333;font-weight: bold;&quot;&gt;ID&lt;/span&gt;&lt;span style=&quot;font-size:16.7px;color:#333333;&quot;&gt;, Int(11), PK, NN, AI.&lt;/span&gt;&lt;/span&gt;&lt;/li&gt;&lt;li style=&quot;text-align:left;color:#333333;font-size:16.7px;&quot;&gt;&lt;span style=&quot;margin-left: 0px;margin-top: -2px;&quot;&gt;&lt;span style=&quot;font-size:16.7px;color:#333333;&quot;&gt;&lt;span style=&quot;font-size:16.7px;color:#333333;font-weight: bold;&quot;&gt;Nombre&lt;/span&gt;, Char(42), NN.&lt;/span&gt;&lt;/span&gt;&lt;/li&gt;&lt;li style=&quot;text-align:left;color:#333333;font-size:16.7px;&quot;&gt;&lt;span style=&quot;margin-left: 0px;margin-top: -2px;&quot;&gt;&lt;span style=&quot;font-size:16.7px;color:#333333;&quot;&gt;&lt;span style=&quot;font-size:16.7px;color:#333333;font-weight: bold;&quot;&gt;Estado Civil&lt;/span&gt;, ENUM(&#39;Soltero&#39;, &#39;Casado&#39;), NN.&lt;/span&gt;&lt;/span&gt;&lt;/li&gt;&lt;li style=&quot;text-align:left;color:#333333;font-size:16.7px;&quot;&gt;&lt;span style=&quot;margin-left: 0px;margin-top: -2px;&quot;&gt;&lt;span style=&quot;font-size:16.7px;color:#333333;&quot;&gt;&lt;span style=&quot;font-size:16.7px;color:#333333;font-weight: bold;&quot;&gt;Nacimiento&lt;/span&gt;, Fecha, NN.&lt;/span&gt;&lt;/span&gt;&lt;/li&gt;&lt;li style=&quot;text-align:left;color:#333333;font-size:16.7px;&quot;&gt;&lt;span style=&quot;margin-left: 0px;margin-top: -2px;&quot;&gt;&lt;span style=&quot;font-size:16.7px;color:#333333;&quot;&gt;&lt;span style=&quot;font-size:16.7px;color:#333333;font-weight: bold;&quot;&gt;Direccion&lt;/span&gt;, Char(42), NN.&lt;/span&gt;&lt;/span&gt;&lt;/li&gt;&lt;li style=&quot;text-align:left;color:#333333;font-size:16.7px;&quot;&gt;&lt;span style=&quot;margin-left: 0px;margin-top: -2px;&quot;&gt;&lt;span style=&quot;font-size:16.7px;color:#333333;&quot;&gt;&lt;span style=&quot;font-size:16.7px;color:#333333;font-weight: bold;&quot;&gt;Telefono&lt;/span&gt;, Char(42), NN.&lt;/span&gt;&lt;/span&gt;&lt;/li&gt;&lt;li style=&quot;text-align:left;color:#333333;font-size:16.7px;&quot;&gt;&lt;span style=&quot;margin-left: 0px;margin-top: -2px;&quot;&gt;&lt;span style=&quot;font-size:16.7px;color:#333333;&quot;&gt;&lt;span style=&quot;font-size:16.7px;color:#333333;font-weight: bold;&quot;&gt;ID celula&lt;/span&gt;, Int(11), NN, FK.&lt;/span&gt;&lt;/span&gt;&lt;/li&gt;&lt;/ul&gt;" lucidchartObjectId="K7Z5dQxVVRpv" id="hVVVExCG_ycvUPT3CRaz-26">
          <mxCell style="html=1;overflow=block;blockSpacing=1;whiteSpace=wrap;fontSize=13;spacing=3.8;strokeColor=#5e5e5e;strokeOpacity=100;rounded=1;absoluteArcSize=1;arcSize=9;strokeWidth=2.3;" parent="1" vertex="1">
            <mxGeometry x="1587" y="68" width="195" height="312" as="geometry" />
          </mxCell>
        </UserObject>
        <UserObject label="CIRCULO DE INFLUENCIA" lucidchartObjectId="Ej05aYapbvef" id="hVVVExCG_ycvUPT3CRaz-27">
          <mxCell style="html=1;overflow=block;blockSpacing=1;whiteSpace=wrap;fontSize=16.7;fontColor=#333333;align=center;spacing=3.8;strokeOpacity=0;fillOpacity=0;rounded=1;absoluteArcSize=1;arcSize=9;fillColor=#ffffff;strokeWidth=2.3;" parent="1" vertex="1">
            <mxGeometry x="1587" y="16" width="180" height="48" as="geometry" />
          </mxCell>
        </UserObject>
        <UserObject label="" lucidchartObjectId="1j05BnCwob1R" id="hVVVExCG_ycvUPT3CRaz-28">
          <mxCell style="html=1;jettySize=18;whiteSpace=wrap;overflow=block;blockSpacing=1;fontSize=13;strokeColor=#5E5E5E;strokeWidth=1.5;rounded=1;arcSize=12;edgeStyle=orthogonalEdgeStyle;startArrow=ERoneToMany;startSize=10;endArrow=ERmandOne;endSize=10;entryX=1.008;entryY=0.08;entryPerimeter=0;exitX=0.006;exitY=0.891;exitDx=0;exitDy=0;exitPerimeter=0;" parent="1" source="hVVVExCG_ycvUPT3CRaz-26" target="hVVVExCG_ycvUPT3CRaz-13" edge="1">
            <mxGeometry width="100" height="100" relative="1" as="geometry">
              <Array as="points">
                <mxPoint x="1542" y="346" />
                <mxPoint x="1542" y="510" />
                <mxPoint x="1265" y="510" />
                <mxPoint x="1265" y="438" />
              </Array>
              <mxPoint x="1580" y="420" as="sourcePoint" />
            </mxGeometry>
          </mxCell>
        </UserObject>
        <UserObject label="&lt;ul style=&quot;margin: 0px; padding-left: 10px;list-style-position: inside; list-style-type:disc&quot;&gt;&lt;li style=&quot;text-align:left;color:#333333;font-size:16.7px;&quot;&gt;&lt;span style=&quot;margin-left: 0px;margin-top: -2px;&quot;&gt;&lt;span style=&quot;font-size:16.7px;color:#333333;font-weight: bold;&quot;&gt;ID&lt;/span&gt;&lt;span style=&quot;font-size:16.7px;color:#333333;&quot;&gt;, Int(11), PK, NN, AI.&lt;/span&gt;&lt;/span&gt;&lt;/li&gt;&lt;li style=&quot;text-align:left;color:#333333;font-size:16.7px;&quot;&gt;&lt;span style=&quot;margin-left: 0px;margin-top: -2px;&quot;&gt;&lt;span style=&quot;font-size:16.7px;color:#333333;&quot;&gt;&lt;span style=&quot;font-size:16.7px;color:#333333;font-weight: bold;&quot;&gt;Nombre&lt;/span&gt;, Char(42), NN.&lt;/span&gt;&lt;/span&gt;&lt;/li&gt;&lt;li style=&quot;text-align:left;color:#333333;font-size:16.7px;&quot;&gt;&lt;span style=&quot;margin-left: 0px;margin-top: -2px;&quot;&gt;&lt;span style=&quot;font-size:16.7px;color:#333333;&quot;&gt;&lt;span style=&quot;font-size:16.7px;color:#333333;font-weight: bold;&quot;&gt;Mes&lt;/span&gt;, DATE, NN.&lt;/span&gt;&lt;/span&gt;&lt;/li&gt;&lt;li style=&quot;text-align:left;color:#333333;font-size:16.7px;&quot;&gt;&lt;span style=&quot;margin-left: 0px;margin-top: -2px;&quot;&gt;&lt;span style=&quot;font-size:16.7px;color:#333333;&quot;&gt;&lt;span style=&quot;font-size:16.7px;color:#333333;font-weight: bold;&quot;&gt;ID celula&lt;/span&gt;, Int(11), NN, FK.&lt;/span&gt;&lt;/span&gt;&lt;/li&gt;&lt;/ul&gt;" lucidchartObjectId="6I_5zqr.uQOb" id="hVVVExCG_ycvUPT3CRaz-29">
          <mxCell style="html=1;overflow=block;blockSpacing=1;whiteSpace=wrap;fontSize=13;spacing=3.8;strokeColor=#5e5e5e;strokeOpacity=100;rounded=1;absoluteArcSize=1;arcSize=9;strokeWidth=2.3;" parent="1" vertex="1">
            <mxGeometry x="1872" y="68" width="165" height="173" as="geometry" />
          </mxCell>
        </UserObject>
        <UserObject label="ASISTENCIA REUNION" lucidchartObjectId="z9q66F7CPwF9" id="hVVVExCG_ycvUPT3CRaz-30">
          <mxCell style="html=1;overflow=block;blockSpacing=1;whiteSpace=wrap;fontSize=16.7;fontColor=#333333;align=center;spacing=3.8;strokeOpacity=0;fillOpacity=0;rounded=1;absoluteArcSize=1;arcSize=9;fillColor=#ffffff;strokeWidth=2.3;" parent="1" vertex="1">
            <mxGeometry x="1865" y="20" width="180" height="48" as="geometry" />
          </mxCell>
        </UserObject>
        <UserObject label="&lt;ul style=&quot;margin: 0px; padding-left: 10px;list-style-position: inside; list-style-type:disc&quot;&gt;&lt;li style=&quot;text-align:left;color:#333333;font-size:16.7px;&quot;&gt;&lt;span style=&quot;margin-left: 0px;margin-top: -2px;&quot;&gt;&lt;span style=&quot;font-size:16.7px;color:#333333;font-weight: bold;&quot;&gt;ID,&lt;/span&gt;&lt;span style=&quot;font-size:16.7px;color:#333333;&quot;&gt;Int(11), PK, NN, AI.&lt;/span&gt;&lt;/span&gt;&lt;/li&gt;&lt;li style=&quot;text-align:left;color:#333333;font-size:16.7px;&quot;&gt;&lt;span style=&quot;margin-left: 0px;margin-top: -2px;&quot;&gt;&lt;span style=&quot;font-size:16.7px;color:#333333;&quot;&gt;&lt;span style=&quot;font-size:16.7px;color:#333333;font-weight: bold;&quot;&gt;Fecha&lt;/span&gt;, DATE, NN.&lt;/span&gt;&lt;/span&gt;&lt;/li&gt;&lt;li style=&quot;text-align:left;color:#333333;font-size:16.7px;&quot;&gt;&lt;span style=&quot;margin-left: 0px;margin-top: -2px;&quot;&gt;&lt;span style=&quot;font-size:16.7px;color:#333333;&quot;&gt;&lt;span style=&quot;font-size:16.7px;color:#333333;font-weight: bold;&quot;&gt;Nombre&lt;/span&gt;, Char(42), NN.&lt;/span&gt;&lt;/span&gt;&lt;/li&gt;&lt;li style=&quot;text-align:left;color:#333333;font-size:16.7px;&quot;&gt;&lt;span style=&quot;margin-left: 0px;margin-top: -2px;&quot;&gt;&lt;span style=&quot;font-size:16.7px;color:#333333;&quot;&gt;&lt;span style=&quot;font-size:16.7px;color:#333333;font-weight: bold;&quot;&gt;Conver/Recon&lt;/span&gt;, ENUM(&#39;Conversion&#39;, &#39;Reconcilio&#39;), NN.&lt;/span&gt;&lt;/span&gt;&lt;/li&gt;&lt;li style=&quot;text-align:left;color:#333333;font-size:16.7px;&quot;&gt;&lt;span style=&quot;margin-left: 0px;margin-top: -2px;&quot;&gt;&lt;span style=&quot;font-size:16.7px;color:#333333;&quot;&gt;&lt;span style=&quot;font-size:16.7px;color:#333333;font-weight: bold;&quot;&gt;Estado Civil&lt;/span&gt;, ENUM(&#39;Soltero&#39;, &#39;Casado&#39;), NN.&lt;/span&gt;&lt;/span&gt;&lt;/li&gt;&lt;li style=&quot;text-align:left;color:#333333;font-size:16.7px;&quot;&gt;&lt;span style=&quot;margin-left: 0px;margin-top: -2px;&quot;&gt;&lt;span style=&quot;font-size:16.7px;color:#333333;&quot;&gt;&lt;span style=&quot;font-size:16.7px;color:#333333;font-weight: bold;&quot;&gt;Bautismos&lt;/span&gt;, ENUM(&#39;Agua&#39;, &#39;E.S.&#39;).&lt;/span&gt;&lt;/span&gt;&lt;/li&gt;&lt;li style=&quot;text-align:left;color:#333333;font-size:16.7px;&quot;&gt;&lt;span style=&quot;margin-left: 0px;margin-top: -2px;&quot;&gt;&lt;span style=&quot;font-size:16.7px;color:#333333;&quot;&gt;&lt;span style=&quot;font-size:16.7px;color:#333333;font-weight: bold;&quot;&gt;Nacimiento&lt;/span&gt;, DATE, NN.&lt;/span&gt;&lt;/span&gt;&lt;/li&gt;&lt;li style=&quot;text-align:left;color:#333333;font-size:16.7px;&quot;&gt;&lt;span style=&quot;margin-left: 0px;margin-top: -2px;&quot;&gt;&lt;span style=&quot;font-size:16.7px;color:#333333;&quot;&gt;&lt;span style=&quot;font-size:16.7px;color:#333333;font-weight: bold;&quot;&gt;Direccion&lt;/span&gt;, Char(42), NN.&lt;/span&gt;&lt;/span&gt;&lt;/li&gt;&lt;li style=&quot;text-align:left;color:#333333;font-size:16.7px;&quot;&gt;&lt;span style=&quot;margin-left: 0px;margin-top: -2px;&quot;&gt;&lt;span style=&quot;font-size:16.7px;color:#333333;&quot;&gt;&lt;span style=&quot;font-size:16.7px;color:#333333;font-weight: bold;&quot;&gt;Telefono&lt;/span&gt;, Char(42), NN.&lt;/span&gt;&lt;/span&gt;&lt;/li&gt;&lt;li style=&quot;text-align:left;color:#333333;font-size:16.7px;&quot;&gt;&lt;span style=&quot;margin-left: 0px;margin-top: -2px;&quot;&gt;&lt;span style=&quot;font-size:16.7px;color:#333333;&quot;&gt;&lt;span style=&quot;font-size:16.7px;color:#333333;font-weight: bold;&quot;&gt;ID celula&lt;/span&gt;, Int(11), NN, FK.&lt;/span&gt;&lt;/span&gt;&lt;/li&gt;&lt;/ul&gt;" lucidchartObjectId="-ZM6ocC9C9pX" id="hVVVExCG_ycvUPT3CRaz-31">
          <mxCell style="html=1;overflow=block;blockSpacing=1;whiteSpace=wrap;fontSize=13;spacing=3.8;strokeColor=#5e5e5e;strokeOpacity=100;rounded=1;absoluteArcSize=1;arcSize=9;strokeWidth=2.3;" parent="1" vertex="1">
            <mxGeometry x="2097" y="66" width="195" height="414" as="geometry" />
          </mxCell>
        </UserObject>
        <UserObject label="" lucidchartObjectId="t0M6ZVe50oVA" id="hVVVExCG_ycvUPT3CRaz-32">
          <mxCell style="html=1;jettySize=18;whiteSpace=wrap;overflow=block;blockSpacing=1;fontSize=13;strokeColor=#5E5E5E;strokeWidth=1.5;rounded=1;arcSize=12;edgeStyle=orthogonalEdgeStyle;startArrow=ERoneToMany;startSize=10;endArrow=ERmandOne;endSize=10;exitX=-0.007;exitY=0.706;exitPerimeter=0;entryX=1.008;entryY=0.08;entryPerimeter=0;startFill=0;" parent="1" source="hVVVExCG_ycvUPT3CRaz-29" target="hVVVExCG_ycvUPT3CRaz-13" edge="1">
            <mxGeometry width="100" height="100" relative="1" as="geometry">
              <Array as="points">
                <mxPoint x="1820" y="190" />
                <mxPoint x="1820" y="555" />
                <mxPoint x="1265" y="555" />
                <mxPoint x="1265" y="438" />
              </Array>
            </mxGeometry>
          </mxCell>
        </UserObject>
        <UserObject label="" lucidchartObjectId="yZR6bUiMJzjf" id="hVVVExCG_ycvUPT3CRaz-33">
          <mxCell style="html=1;jettySize=18;whiteSpace=wrap;overflow=block;blockSpacing=1;fontSize=13;strokeColor=#5E5E5E;strokeWidth=1.5;rounded=1;arcSize=12;edgeStyle=orthogonalEdgeStyle;startArrow=ERoneToMany;startSize=10;endArrow=ERmandOne;endSize=10;exitX=-0.006;exitY=0.916;exitPerimeter=0;entryX=1.008;entryY=0.08;entryPerimeter=0;startFill=0;" parent="1" source="hVVVExCG_ycvUPT3CRaz-31" target="hVVVExCG_ycvUPT3CRaz-13" edge="1">
            <mxGeometry width="100" height="100" relative="1" as="geometry">
              <Array as="points">
                <mxPoint x="1962" y="445" />
                <mxPoint x="1962" y="555" />
                <mxPoint x="1265" y="555" />
                <mxPoint x="1265" y="438" />
              </Array>
            </mxGeometry>
          </mxCell>
        </UserObject>
        <UserObject label="DATOS DE CONVERSION" lucidchartObjectId="10R67vQJP7B_" id="hVVVExCG_ycvUPT3CRaz-34">
          <mxCell style="html=1;overflow=block;blockSpacing=1;whiteSpace=wrap;fontSize=16.7;fontColor=#333333;align=center;spacing=3.8;strokeOpacity=0;fillOpacity=0;rounded=1;absoluteArcSize=1;arcSize=9;fillColor=#ffffff;strokeWidth=2.3;" parent="1" vertex="1">
            <mxGeometry x="2097" y="19" width="180" height="48" as="geometry" />
          </mxCell>
        </UserObject>
        <UserObject label="&lt;ul style=&quot;margin: 0px; padding-left: 10px;list-style-position: inside; list-style-type:disc&quot;&gt;&lt;li style=&quot;text-align:left;color:#333333;font-size:16.7px;&quot;&gt;&lt;span style=&quot;margin-left: 0px;margin-top: -2px;&quot;&gt;&lt;span style=&quot;font-size:16.7px;color:#333333;font-weight: bold;&quot;&gt;ID&lt;/span&gt;&lt;span style=&quot;font-size:16.7px;color:#333333;&quot;&gt;, Int(11), PK, NN, AI.&lt;/span&gt;&lt;/span&gt;&lt;/li&gt;&lt;li style=&quot;text-align:left;color:#333333;font-size:16.7px;&quot;&gt;&lt;span style=&quot;margin-left: 0px;margin-top: -2px;&quot;&gt;&lt;span style=&quot;font-size:16.7px;color:#333333;&quot;&gt;&lt;span style=&quot;font-size:16.7px;color:#333333;font-weight: bold;&quot;&gt;Nombre&lt;/span&gt;, Char(42), NN.&lt;/span&gt;&lt;/span&gt;&lt;/li&gt;&lt;li style=&quot;text-align:left;color:#333333;font-size:16.7px;&quot;&gt;&lt;span style=&quot;margin-left: 0px;margin-top: -2px;&quot;&gt;&lt;span style=&quot;font-size:16.7px;color:#333333;&quot;&gt;&lt;span style=&quot;font-size:16.7px;color:#333333;font-weight: bold;&quot;&gt;Conver/Recon&lt;/span&gt;, ENUM(&#39;Conversion&#39;, &#39;Reconcilio&#39;).&lt;/span&gt;&lt;/span&gt;&lt;/li&gt;&lt;li style=&quot;text-align:left;color:#333333;font-size:16.7px;&quot;&gt;&lt;span style=&quot;margin-left: 0px;margin-top: -2px;&quot;&gt;&lt;span style=&quot;font-size:16.7px;color:#333333;&quot;&gt;&lt;span style=&quot;font-size:16.7px;color:#333333;font-weight: bold;&quot;&gt;Estado Civil&lt;/span&gt;, ENUM(&#39;Soltero&#39;, &#39;Casado&#39;), NN.&lt;/span&gt;&lt;/span&gt;&lt;/li&gt;&lt;li style=&quot;text-align:left;color:#333333;font-size:16.7px;&quot;&gt;&lt;span style=&quot;margin-left: 0px;margin-top: -2px;&quot;&gt;&lt;span style=&quot;font-size:16.7px;color:#333333;&quot;&gt;&lt;span style=&quot;font-size:16.7px;color:#333333;font-weight: bold;&quot;&gt;Bautismos&lt;/span&gt;, ENUM(&#39;Agua&#39;, &#39;E.S.&#39;).&lt;/span&gt;&lt;/span&gt;&lt;/li&gt;&lt;li style=&quot;text-align:left;color:#333333;font-size:16.7px;&quot;&gt;&lt;span style=&quot;margin-left: 0px;margin-top: -2px;&quot;&gt;&lt;span style=&quot;font-size:16.7px;color:#333333;&quot;&gt;&lt;span style=&quot;font-size:16.7px;color:#333333;font-weight: bold;&quot;&gt;Nacimiento&lt;/span&gt;, DATE, NN.&lt;/span&gt;&lt;/span&gt;&lt;/li&gt;&lt;li style=&quot;text-align:left;color:#333333;font-size:16.7px;&quot;&gt;&lt;span style=&quot;margin-left: 0px;margin-top: -2px;&quot;&gt;&lt;span style=&quot;font-size:16.7px;color:#333333;&quot;&gt;&lt;span style=&quot;font-size:16.7px;color:#333333;font-weight: bold;&quot;&gt;Visitas&lt;/span&gt;, ENUM(&#39;1&#39;, &#39;2&#39;, &#39;3&#39;, &#39;4&#39;), NN.&lt;/span&gt;&lt;/span&gt;&lt;/li&gt;&lt;li style=&quot;text-align:left;color:#333333;font-size:16.7px;&quot;&gt;&lt;span style=&quot;margin-left: 0px;margin-top: -2px;&quot;&gt;&lt;span style=&quot;font-size:16.7px;color:#333333;&quot;&gt;&lt;span style=&quot;font-size:16.7px;color:#333333;font-weight: bold;&quot;&gt;Telefono&lt;/span&gt;, Char(42), NN.&lt;/span&gt;&lt;/span&gt;&lt;/li&gt;&lt;li style=&quot;text-align:left;color:#333333;font-size:16.7px;&quot;&gt;&lt;span style=&quot;margin-left: 0px;margin-top: -2px;&quot;&gt;&lt;span style=&quot;font-size:16.7px;color:#333333;&quot;&gt;&lt;span style=&quot;font-size:16.7px;color:#333333;font-weight: bold;&quot;&gt;ID celula&lt;/span&gt;, Int(11), NN, FK.&lt;/span&gt;&lt;/span&gt;&lt;/li&gt;&lt;/ul&gt;" lucidchartObjectId="r3R6Q2IRTg27" id="hVVVExCG_ycvUPT3CRaz-35">
          <mxCell style="html=1;overflow=block;blockSpacing=1;whiteSpace=wrap;fontSize=13;spacing=3.8;strokeColor=#5e5e5e;strokeOpacity=100;rounded=1;absoluteArcSize=1;arcSize=9;strokeWidth=2.3;" parent="1" vertex="1">
            <mxGeometry x="2367" y="68" width="195" height="422" as="geometry" />
          </mxCell>
        </UserObject>
        <UserObject label="VISITAS PROGRAMADAS" lucidchartObjectId="v3R6o1dtJgma" id="hVVVExCG_ycvUPT3CRaz-36">
          <mxCell style="html=1;overflow=block;blockSpacing=1;whiteSpace=wrap;fontSize=16.7;fontColor=#333333;align=center;spacing=3.8;strokeOpacity=0;fillOpacity=0;rounded=1;absoluteArcSize=1;arcSize=9;fillColor=#ffffff;strokeWidth=2.3;" parent="1" vertex="1">
            <mxGeometry x="2382" y="21" width="180" height="48" as="geometry" />
          </mxCell>
        </UserObject>
        <UserObject label="" lucidchartObjectId="06R6RGof9x.v" id="hVVVExCG_ycvUPT3CRaz-37">
          <mxCell style="html=1;jettySize=18;whiteSpace=wrap;overflow=block;blockSpacing=1;fontSize=13;strokeColor=#5E5E5E;strokeWidth=1.5;rounded=1;arcSize=12;edgeStyle=orthogonalEdgeStyle;startArrow=ERoneToMany;startSize=10;endArrow=ERmandOne;endSize=10;exitX=-0.006;exitY=0.903;exitPerimeter=0;entryX=1.008;entryY=0.08;entryPerimeter=0;startFill=0;" parent="1" source="hVVVExCG_ycvUPT3CRaz-35" target="hVVVExCG_ycvUPT3CRaz-13" edge="1">
            <mxGeometry width="100" height="100" relative="1" as="geometry">
              <Array as="points">
                <mxPoint x="2330" y="449" />
                <mxPoint x="2330" y="555" />
                <mxPoint x="1265" y="555" />
                <mxPoint x="1265" y="438" />
              </Array>
            </mxGeometry>
          </mxCell>
        </UserObject>
        <UserObject label="&lt;ul style=&quot;margin: 0px ; padding-left: 10px ; list-style-position: inside ; list-style-type: disc&quot;&gt;&lt;li style=&quot;text-align: left ; color: #333333 ; font-size: 16.7px&quot;&gt;&lt;span style=&quot;margin-left: 0px ; margin-top: -2px&quot;&gt;&lt;span style=&quot;font-size: 16.7px ; color: #333333 ; font-weight: bold&quot;&gt;ID&lt;/span&gt;&lt;span style=&quot;font-size: 16.7px ; color: #333333&quot;&gt;, Int(11), PK, NN AI.&lt;/span&gt;&lt;/span&gt;&lt;/li&gt;&lt;li style=&quot;text-align: left ; color: #333333 ; font-size: 16.7px&quot;&gt;&lt;span style=&quot;margin-left: 0px ; margin-top: -2px&quot;&gt;&lt;span style=&quot;font-size: 16.7px ; color: #333333&quot;&gt;&lt;span style=&quot;font-size: 16.7px ; color: #333333 ; font-weight: bold&quot;&gt;Reunion&lt;/span&gt;, ENUM(&#39;Jueves&#39;, &#39;Sabado&#39;), NN.&lt;/span&gt;&lt;/span&gt;&lt;/li&gt;&lt;li style=&quot;text-align: left ; color: #333333 ; font-size: 16.7px&quot;&gt;&lt;span style=&quot;margin-left: 0px ; margin-top: -2px&quot;&gt;&lt;span style=&quot;font-size: 16.7px ; color: #333333&quot;&gt;&lt;span style=&quot;font-size: 16.7px ; color: #333333 ; font-weight: bold&quot;&gt;Adultos&lt;/span&gt;, Int(11).&lt;/span&gt;&lt;/span&gt;&lt;/li&gt;&lt;li style=&quot;text-align: left ; color: #333333 ; font-size: 16.7px&quot;&gt;&lt;span style=&quot;margin-left: 0px ; margin-top: -2px&quot;&gt;&lt;span style=&quot;font-size: 16.7px ; color: #333333&quot;&gt;&lt;span style=&quot;font-size: 16.7px ; color: #333333 ; font-weight: bold&quot;&gt;Jovenes&lt;/span&gt;, Int(11).&lt;/span&gt;&lt;/span&gt;&lt;/li&gt;&lt;li style=&quot;text-align: left ; color: #333333 ; font-size: 16.7px&quot;&gt;&lt;span style=&quot;margin-left: 0px ; margin-top: -2px&quot;&gt;&lt;span style=&quot;font-size: 16.7px ; color: #333333&quot;&gt;&lt;span style=&quot;font-size: 16.7px ; color: #333333 ; font-weight: bold&quot;&gt;Niños&lt;/span&gt;, Int(11).&lt;/span&gt;&lt;/span&gt;&lt;/li&gt;&lt;li style=&quot;text-align: left ; color: #333333 ; font-size: 16.7px&quot;&gt;&lt;span style=&quot;margin-left: 0px ; margin-top: -2px&quot;&gt;&lt;span style=&quot;font-size: 16.7px ; color: #333333&quot;&gt;&lt;span style=&quot;font-size: 16.7px ; color: #333333 ; font-weight: bold&quot;&gt;Conversion&lt;/span&gt;, Int(11).&lt;/span&gt;&lt;/span&gt;&lt;/li&gt;&lt;li style=&quot;text-align: left ; color: #333333 ; font-size: 16.7px&quot;&gt;&lt;span style=&quot;margin-left: 0px ; margin-top: -2px&quot;&gt;&lt;span style=&quot;font-size: 16.7px ; color: #333333&quot;&gt;&lt;span style=&quot;font-size: 16.7px ; color: #333333 ; font-weight: bold&quot;&gt;Reconcilio&lt;/span&gt;, Int(11).&lt;/span&gt;&lt;/span&gt;&lt;/li&gt;&lt;li style=&quot;text-align: left ; color: #333333 ; font-size: 16.7px&quot;&gt;&lt;span style=&quot;margin-left: 0px ; margin-top: -2px&quot;&gt;&lt;span style=&quot;font-size: 16.7px ; color: #333333&quot;&gt;&lt;span style=&quot;font-size: 16.7px ; color: #333333 ; font-weight: bold&quot;&gt;Visitas Programadas&lt;/span&gt;, Int(11).&lt;/span&gt;&lt;/span&gt;&lt;/li&gt;&lt;li style=&quot;text-align: left ; color: #333333 ; font-size: 16.7px&quot;&gt;&lt;span style=&quot;margin-left: 0px ; margin-top: -2px&quot;&gt;&lt;span style=&quot;font-size: 16.7px ; color: #333333&quot;&gt;&lt;span style=&quot;font-size: 16.7px ; color: #333333 ; font-weight: bold&quot;&gt;Bautismo&lt;/span&gt;, Int(11).&lt;/span&gt;&lt;/span&gt;&lt;/li&gt;&lt;li style=&quot;text-align: left ; color: #333333 ; font-size: 16.7px&quot;&gt;&lt;span style=&quot;margin-left: 0px ; margin-top: -2px&quot;&gt;&lt;span style=&quot;font-size: 16.7px ; color: #333333&quot;&gt;&lt;span style=&quot;font-size: 16.7px ; color: #333333 ; font-weight: bold&quot;&gt;ID ofrendas&lt;/span&gt;, Int(11), NN, FK.&lt;/span&gt;&lt;/span&gt;&lt;/li&gt;&lt;li style=&quot;text-align: left ; color: #333333 ; font-size: 16.7px&quot;&gt;&lt;span style=&quot;margin-left: 0px ; margin-top: -2px&quot;&gt;&lt;span style=&quot;font-size: 16.7px ; color: #333333&quot;&gt;&lt;span style=&quot;font-size: 16.7px ; color: #333333 ; font-weight: bold&quot;&gt;ID Asistencia Iglesia&lt;/span&gt;, Int(11), NN, FK.&lt;/span&gt;&lt;/span&gt;&lt;/li&gt;&lt;li style=&quot;text-align: left ; color: #333333 ; font-size: 16.7px&quot;&gt;&lt;span style=&quot;margin-left: 0px ; margin-top: -2px&quot;&gt;&lt;span style=&quot;font-size: 16.7px ; color: #333333&quot;&gt;&lt;b&gt;ID Celula&lt;/b&gt;, Int(11), NN, FK.&lt;br&gt;&lt;/span&gt;&lt;/span&gt;&lt;/li&gt;&lt;/ul&gt;" lucidchartObjectId="MDS6F-RpU8.b" id="hraIK7r8635V12LgCezm-1">
          <mxCell style="html=1;overflow=block;blockSpacing=1;whiteSpace=wrap;fontSize=13;spacing=3.8;strokeColor=#5e5e5e;strokeOpacity=100;rounded=1;absoluteArcSize=1;arcSize=9;strokeWidth=2.3;" vertex="1" parent="1">
            <mxGeometry x="1295" y="660" width="210" height="380" as="geometry" />
          </mxCell>
        </UserObject>
        <UserObject label="REPORTE SEMANAL DE CELULA" lucidchartObjectId="muS5HW5V1hs6" id="hraIK7r8635V12LgCezm-3">
          <mxCell style="html=1;overflow=block;blockSpacing=1;whiteSpace=wrap;fontSize=16.7;fontColor=#333333;align=center;spacing=3.8;strokeOpacity=0;fillOpacity=0;rounded=1;absoluteArcSize=1;arcSize=9;fillColor=#ffffff;strokeWidth=2.3;" vertex="1" parent="1">
            <mxGeometry x="1310" y="612" width="180" height="45" as="geometry" />
          </mxCell>
        </UserObject>
        <UserObject label="" lucidchartObjectId="9IZ5y9N6FKIM" id="hraIK7r8635V12LgCezm-4">
          <mxCell style="html=1;jettySize=18;whiteSpace=wrap;overflow=block;blockSpacing=1;fontSize=13;strokeColor=#5E5E5E;strokeWidth=1.5;rounded=1;arcSize=12;edgeStyle=orthogonalEdgeStyle;startArrow=ERmandOne;startSize=10;endArrow=ERoneToMany;endSize=10;entryX=-0.014;entryY=0.911;entryDx=0;entryDy=0;entryPerimeter=0;" edge="1" parent="1" target="hraIK7r8635V12LgCezm-1">
            <mxGeometry width="100" height="100" relative="1" as="geometry">
              <Array as="points">
                <mxPoint x="1200" y="440" />
                <mxPoint x="1200" y="1006" />
              </Array>
              <mxPoint x="940" y="440" as="sourcePoint" />
              <mxPoint x="1210" y="680" as="targetPoint" />
            </mxGeometry>
          </mxCell>
        </UserObject>
        <UserObject label="&lt;ul style=&quot;margin: 0px ; padding-left: 10px ; list-style-position: inside ; list-style-type: disc&quot;&gt;&lt;li style=&quot;text-align: left ; color: #333333 ; font-size: 16.7px&quot;&gt;&lt;span style=&quot;margin-left: 0px ; margin-top: -2px&quot;&gt;&lt;span style=&quot;font-size: 16.7px ; color: #333333 ; font-weight: bold&quot;&gt;ID&lt;/span&gt;&lt;span style=&quot;font-size: 16.7px ; color: #333333&quot;&gt;, Int(11), PK, NN, AI.&lt;/span&gt;&lt;/span&gt;&lt;/li&gt;&lt;li style=&quot;text-align: left ; color: #333333 ; font-size: 16.7px&quot;&gt;&lt;span style=&quot;margin-left: 0px ; margin-top: -2px&quot;&gt;&lt;span style=&quot;font-size: 16.7px ; color: #333333&quot;&gt;&lt;b&gt;Iglesia&lt;/b&gt;, Int(11).&lt;/span&gt;&lt;/span&gt;&lt;/li&gt;&lt;li style=&quot;text-align: left ; color: #333333 ; font-size: 16.7px&quot;&gt;&lt;span style=&quot;margin-left: 0px ; margin-top: -2px&quot;&gt;&lt;span style=&quot;font-size: 16.7px ; color: #333333&quot;&gt;&lt;b&gt;Transporte&lt;/b&gt;, Int(11).&lt;/span&gt;&lt;/span&gt;&lt;/li&gt;&lt;li style=&quot;text-align: left ; color: #333333 ; font-size: 16.7px&quot;&gt;&lt;span style=&quot;margin-left: 0px ; margin-top: -2px&quot;&gt;&lt;span style=&quot;font-size: 16.7px ; color: #333333&quot;&gt;&lt;b&gt;Especial,&lt;/b&gt; Int(11).&lt;br&gt;&lt;/span&gt;&lt;/span&gt;&lt;/li&gt;&lt;/ul&gt;" lucidchartObjectId="6I_5zqr.uQOb" id="hraIK7r8635V12LgCezm-6">
          <mxCell style="html=1;overflow=block;blockSpacing=1;whiteSpace=wrap;fontSize=13;spacing=3.8;strokeColor=#5e5e5e;strokeOpacity=100;rounded=1;absoluteArcSize=1;arcSize=9;strokeWidth=2.3;" vertex="1" parent="1">
            <mxGeometry x="1680" y="640" width="165" height="150" as="geometry" />
          </mxCell>
        </UserObject>
        <UserObject label="&lt;ul style=&quot;margin: 0px ; padding-left: 10px ; list-style-position: inside ; list-style-type: disc&quot;&gt;&lt;li style=&quot;text-align: left ; color: #333333 ; font-size: 16.7px&quot;&gt;&lt;span style=&quot;margin-left: 0px ; margin-top: -2px&quot;&gt;&lt;span style=&quot;font-size: 16.7px ; color: #333333 ; font-weight: bold&quot;&gt;ID&lt;/span&gt;&lt;span style=&quot;font-size: 16.7px ; color: #333333&quot;&gt;, Int(11), PK, NN, AI.&lt;/span&gt;&lt;/span&gt;&lt;/li&gt;&lt;li style=&quot;text-align: left ; color: #333333 ; font-size: 16.7px&quot;&gt;&lt;span style=&quot;margin-left: 0px ; margin-top: -2px&quot;&gt;&lt;span style=&quot;font-size: 16.7px ; color: #333333&quot;&gt;&lt;b&gt;Viernes&lt;/b&gt;, Int(11).&lt;/span&gt;&lt;/span&gt;&lt;/li&gt;&lt;li style=&quot;text-align: left ; color: #333333 ; font-size: 16.7px&quot;&gt;&lt;span style=&quot;margin-left: 0px ; margin-top: -2px&quot;&gt;&lt;span style=&quot;font-size: 16.7px ; color: #333333&quot;&gt;&lt;b&gt;Domingo&lt;/b&gt;, Int(11).&lt;/span&gt;&lt;/span&gt;&lt;/li&gt;&lt;li style=&quot;text-align: left ; color: #333333 ; font-size: 16.7px&quot;&gt;&lt;span style=&quot;margin-left: 0px ; margin-top: -2px&quot;&gt;&lt;span style=&quot;font-size: 16.7px ; color: #333333&quot;&gt;&lt;b&gt;Reunion,&lt;/b&gt; Int(11).&lt;br&gt;&lt;/span&gt;&lt;/span&gt;&lt;/li&gt;&lt;/ul&gt;" lucidchartObjectId="6I_5zqr.uQOb" id="hraIK7r8635V12LgCezm-7">
          <mxCell style="html=1;overflow=block;blockSpacing=1;whiteSpace=wrap;fontSize=13;spacing=3.8;strokeColor=#5e5e5e;strokeOpacity=100;rounded=1;absoluteArcSize=1;arcSize=9;strokeWidth=2.3;" vertex="1" parent="1">
            <mxGeometry x="1680" y="898" width="165" height="142" as="geometry" />
          </mxCell>
        </UserObject>
        <UserObject label="" lucidchartObjectId="yNS5OGtcH84g" id="hraIK7r8635V12LgCezm-8">
          <mxCell style="html=1;jettySize=18;whiteSpace=wrap;overflow=block;blockSpacing=1;fontSize=13;strokeColor=#5E5E5E;strokeWidth=1.5;rounded=1;arcSize=12;edgeStyle=orthogonalEdgeStyle;startArrow=ERmandOne;startSize=10;endArrow=ERmandOne;endSize=10;entryX=-0.003;entryY=0.165;entryPerimeter=0;endFill=0;entryDx=0;entryDy=0;exitX=1.004;exitY=0.69;exitDx=0;exitDy=0;exitPerimeter=0;" edge="1" parent="1" source="hraIK7r8635V12LgCezm-1" target="hraIK7r8635V12LgCezm-6">
            <mxGeometry width="100" height="100" relative="1" as="geometry">
              <mxPoint x="1520" y="730" as="sourcePoint" />
              <mxPoint x="1597.6000000000001" y="863.962" as="targetPoint" />
            </mxGeometry>
          </mxCell>
        </UserObject>
        <UserObject label="" lucidchartObjectId="yNS5OGtcH84g" id="hraIK7r8635V12LgCezm-9">
          <mxCell style="html=1;jettySize=18;whiteSpace=wrap;overflow=block;blockSpacing=1;fontSize=13;strokeColor=#5E5E5E;strokeWidth=1.5;rounded=1;arcSize=12;edgeStyle=orthogonalEdgeStyle;startArrow=ERmandOne;startSize=10;endArrow=ERmandOne;endSize=10;endFill=0;exitX=0.998;exitY=0.816;exitDx=0;exitDy=0;exitPerimeter=0;entryX=-0.003;entryY=0.127;entryDx=0;entryDy=0;entryPerimeter=0;" edge="1" parent="1" source="hraIK7r8635V12LgCezm-1" target="hraIK7r8635V12LgCezm-7">
            <mxGeometry width="100" height="100" relative="1" as="geometry">
              <Array as="points">
                <mxPoint x="1630" y="970" />
                <mxPoint x="1630" y="916" />
              </Array>
              <mxPoint x="1540" y="770" as="sourcePoint" />
              <mxPoint x="1660" y="900" as="targetPoint" />
            </mxGeometry>
          </mxCell>
        </UserObject>
      </root>
    </mxGraphModel>
  </diagram>
  <diagram id="z9PjsxA76x4VhaomSxxP" name="diagrama-de-flujo">
    <mxGraphModel dx="2274" dy="810" grid="1" gridSize="10" guides="1" tooltips="1" connect="1" arrows="1" fold="1" page="1" pageScale="1" pageWidth="827" pageHeight="1169" math="0" shadow="0">
      <root>
        <mxCell id="0" />
        <mxCell id="1" parent="0" />
        <UserObject label="Inicio Lider" lucidchartObjectId="e7Z5jtZxVDOU" id="nXR1kiyWYMV7j4rX-SNU-1">
          <mxCell style="html=1;overflow=block;blockSpacing=1;whiteSpace=wrap;rounded=1;arcSize=50;fontSize=16.7;fontColor=#333333;align=center;spacing=3.8;strokeColor=#5e5e5e;strokeOpacity=100;strokeWidth=2.3;" vertex="1" parent="1">
            <mxGeometry x="165" y="45" width="120" height="60" as="geometry" />
          </mxCell>
        </UserObject>
        <UserObject label="Inicio de sesion" lucidchartObjectId="me05HcldMX~4" id="nXR1kiyWYMV7j4rX-SNU-2">
          <mxCell style="html=1;overflow=block;blockSpacing=1;whiteSpace=wrap;fontSize=16.7;fontColor=#333333;align=center;spacing=9;strokeColor=#5e5e5e;strokeOpacity=100;rounded=1;absoluteArcSize=1;arcSize=9;strokeWidth=2.3;" vertex="1" parent="1">
            <mxGeometry x="165" y="150" width="120" height="90" as="geometry" />
          </mxCell>
        </UserObject>
        <UserObject label="" lucidchartObjectId="Be05hGIfM069" id="nXR1kiyWYMV7j4rX-SNU-3">
          <mxCell style="html=1;jettySize=18;whiteSpace=wrap;fontSize=13;strokeColor=#5E5E5E;strokeWidth=1.5;rounded=1;arcSize=12;edgeStyle=orthogonalEdgeStyle;startArrow=none;endArrow=block;endFill=1;exitX=0.5;exitY=1.019;exitPerimeter=0;entryX=0.5;entryY=-0.012;entryPerimeter=0;" edge="1" parent="1" source="nXR1kiyWYMV7j4rX-SNU-1" target="nXR1kiyWYMV7j4rX-SNU-2">
            <mxGeometry width="100" height="100" relative="1" as="geometry">
              <Array as="points" />
            </mxGeometry>
          </mxCell>
        </UserObject>
        <UserObject label="Control de asistencia reunion celular año 2022" lucidchartObjectId="df05Ir2bag1a" id="nXR1kiyWYMV7j4rX-SNU-4">
          <mxCell style="html=1;overflow=block;blockSpacing=1;whiteSpace=wrap;fontSize=16.7;fontColor=#333333;align=center;spacing=9;strokeColor=#5e5e5e;strokeOpacity=100;rounded=1;absoluteArcSize=1;arcSize=9;strokeWidth=2.3;" vertex="1" parent="1">
            <mxGeometry x="165" y="279" width="120" height="118" as="geometry" />
          </mxCell>
        </UserObject>
        <UserObject label="" lucidchartObjectId="jf052DAS36Vy" id="nXR1kiyWYMV7j4rX-SNU-5">
          <mxCell style="html=1;jettySize=18;whiteSpace=wrap;fontSize=13;strokeColor=#5E5E5E;strokeWidth=1.5;rounded=1;arcSize=12;edgeStyle=orthogonalEdgeStyle;startArrow=none;endArrow=block;endFill=1;exitX=0.5;exitY=1.013;exitPerimeter=0;entryX=0.5;entryY=-0.01;entryPerimeter=0;" edge="1" parent="1" source="nXR1kiyWYMV7j4rX-SNU-2" target="nXR1kiyWYMV7j4rX-SNU-4">
            <mxGeometry width="100" height="100" relative="1" as="geometry">
              <Array as="points" />
            </mxGeometry>
          </mxCell>
        </UserObject>
        <UserObject label="Circulo de influencia" lucidchartObjectId="Qf05mx9jNK6L" id="nXR1kiyWYMV7j4rX-SNU-6">
          <mxCell style="html=1;overflow=block;blockSpacing=1;whiteSpace=wrap;fontSize=16.7;fontColor=#333333;align=center;spacing=9;strokeColor=#5e5e5e;strokeOpacity=100;rounded=1;absoluteArcSize=1;arcSize=9;strokeWidth=2.3;" vertex="1" parent="1">
            <mxGeometry y="293" width="120" height="90" as="geometry" />
          </mxCell>
        </UserObject>
        <UserObject label="Datos de conversiones" lucidchartObjectId="_i05wnR11to5" id="nXR1kiyWYMV7j4rX-SNU-7">
          <mxCell style="html=1;overflow=block;blockSpacing=1;whiteSpace=wrap;fontSize=16.7;fontColor=#333333;align=center;spacing=9;strokeColor=#5e5e5e;strokeOpacity=100;rounded=1;absoluteArcSize=1;arcSize=9;strokeWidth=2.3;" vertex="1" parent="1">
            <mxGeometry x="330" y="293" width="120" height="90" as="geometry" />
          </mxCell>
        </UserObject>
        <UserObject label="Datos y control de visitas programadas" lucidchartObjectId="ej05YWkIL~XZ" id="nXR1kiyWYMV7j4rX-SNU-8">
          <mxCell style="html=1;overflow=block;blockSpacing=1;whiteSpace=wrap;fontSize=16.7;fontColor=#333333;align=center;spacing=9;strokeColor=#5e5e5e;strokeOpacity=100;rounded=1;absoluteArcSize=1;arcSize=9;strokeWidth=2.3;" vertex="1" parent="1">
            <mxGeometry x="480" y="285" width="120" height="98" as="geometry" />
          </mxCell>
        </UserObject>
        <UserObject label="Registro de miembros de celula" lucidchartObjectId="lj05qJF35WuX" id="nXR1kiyWYMV7j4rX-SNU-9">
          <mxCell style="html=1;overflow=block;blockSpacing=1;whiteSpace=wrap;fontSize=16.7;fontColor=#333333;align=center;spacing=9;strokeColor=#5e5e5e;strokeOpacity=100;rounded=1;absoluteArcSize=1;arcSize=9;strokeWidth=2.3;" vertex="1" parent="1">
            <mxGeometry x="-150" y="293" width="120" height="90" as="geometry" />
          </mxCell>
        </UserObject>
        <UserObject label="" lucidchartObjectId="tj05l4ea2VQ8" id="nXR1kiyWYMV7j4rX-SNU-10">
          <mxCell style="html=1;jettySize=18;whiteSpace=wrap;fontSize=13;strokeColor=#5E5E5E;strokeWidth=1.5;rounded=1;arcSize=12;edgeStyle=orthogonalEdgeStyle;startArrow=none;endArrow=block;endFill=1;exitX=-0.009;exitY=0.5;exitPerimeter=0;entryX=0.5;entryY=-0.012;entryPerimeter=0;" edge="1" parent="1" source="nXR1kiyWYMV7j4rX-SNU-2" target="nXR1kiyWYMV7j4rX-SNU-6">
            <mxGeometry width="100" height="100" relative="1" as="geometry">
              <Array as="points" />
            </mxGeometry>
          </mxCell>
        </UserObject>
        <UserObject label="" lucidchartObjectId="Ej05_0RGZbC9" id="nXR1kiyWYMV7j4rX-SNU-11">
          <mxCell style="html=1;jettySize=18;whiteSpace=wrap;fontSize=13;strokeColor=#5E5E5E;strokeWidth=1.5;rounded=1;arcSize=12;edgeStyle=orthogonalEdgeStyle;startArrow=none;endArrow=block;endFill=1;exitX=-0.009;exitY=0.5;exitPerimeter=0;entryX=0.5;entryY=-0.012;entryPerimeter=0;" edge="1" parent="1" source="nXR1kiyWYMV7j4rX-SNU-2" target="nXR1kiyWYMV7j4rX-SNU-9">
            <mxGeometry width="100" height="100" relative="1" as="geometry">
              <Array as="points" />
            </mxGeometry>
          </mxCell>
        </UserObject>
        <UserObject label="" lucidchartObjectId="Oj053UJ0wfFA" id="nXR1kiyWYMV7j4rX-SNU-12">
          <mxCell style="html=1;jettySize=18;whiteSpace=wrap;fontSize=13;strokeColor=#5E5E5E;strokeWidth=1.5;rounded=1;arcSize=12;edgeStyle=orthogonalEdgeStyle;startArrow=none;endArrow=block;endFill=1;exitX=1.009;exitY=0.5;exitPerimeter=0;entryX=0.5;entryY=-0.012;entryPerimeter=0;" edge="1" parent="1" source="nXR1kiyWYMV7j4rX-SNU-2" target="nXR1kiyWYMV7j4rX-SNU-7">
            <mxGeometry width="100" height="100" relative="1" as="geometry">
              <Array as="points" />
            </mxGeometry>
          </mxCell>
        </UserObject>
        <UserObject label="" lucidchartObjectId="Wj055IFCU1k5" id="nXR1kiyWYMV7j4rX-SNU-13">
          <mxCell style="html=1;jettySize=18;whiteSpace=wrap;fontSize=13;strokeColor=#5E5E5E;strokeWidth=1.5;rounded=1;arcSize=12;edgeStyle=orthogonalEdgeStyle;startArrow=none;endArrow=block;endFill=1;exitX=1.009;exitY=0.5;exitPerimeter=0;entryX=0.5;entryY=-0.011;entryPerimeter=0;" edge="1" parent="1" source="nXR1kiyWYMV7j4rX-SNU-2" target="nXR1kiyWYMV7j4rX-SNU-8">
            <mxGeometry width="100" height="100" relative="1" as="geometry">
              <Array as="points" />
            </mxGeometry>
          </mxCell>
        </UserObject>
        <UserObject label="Control de asistencia a reuniones generales año 2022" lucidchartObjectId="zm05JcSdkDWq" id="nXR1kiyWYMV7j4rX-SNU-14">
          <mxCell style="html=1;overflow=block;blockSpacing=1;whiteSpace=wrap;fontSize=16.7;fontColor=#333333;align=center;spacing=9;strokeColor=#5e5e5e;strokeOpacity=100;rounded=1;absoluteArcSize=1;arcSize=9;strokeWidth=2.3;" vertex="1" parent="1">
            <mxGeometry x="-300" y="279" width="120" height="118" as="geometry" />
          </mxCell>
        </UserObject>
        <UserObject label="" lucidchartObjectId="Im05HkZ7bm_7" id="nXR1kiyWYMV7j4rX-SNU-15">
          <mxCell style="html=1;jettySize=18;whiteSpace=wrap;fontSize=13;strokeColor=#5E5E5E;strokeWidth=1.5;rounded=1;arcSize=12;edgeStyle=orthogonalEdgeStyle;startArrow=none;endArrow=block;endFill=1;exitX=-0.009;exitY=0.5;exitPerimeter=0;entryX=0.5;entryY=-0.01;entryPerimeter=0;" edge="1" parent="1" source="nXR1kiyWYMV7j4rX-SNU-2" target="nXR1kiyWYMV7j4rX-SNU-14">
            <mxGeometry width="100" height="100" relative="1" as="geometry">
              <Array as="points" />
            </mxGeometry>
          </mxCell>
        </UserObject>
        <UserObject label="Reporte semanal de la celula" lucidchartObjectId="Xn05StD-FWhY" id="nXR1kiyWYMV7j4rX-SNU-16">
          <mxCell style="html=1;overflow=block;blockSpacing=1;whiteSpace=wrap;fontSize=16.7;fontColor=#333333;align=center;spacing=9;strokeColor=#5e5e5e;strokeOpacity=100;rounded=1;absoluteArcSize=1;arcSize=9;strokeWidth=2.3;" vertex="1" parent="1">
            <mxGeometry x="630" y="289" width="120" height="90" as="geometry" />
          </mxCell>
        </UserObject>
        <UserObject label="" lucidchartObjectId="4n05ZcwSs3PT" id="nXR1kiyWYMV7j4rX-SNU-17">
          <mxCell style="html=1;jettySize=18;whiteSpace=wrap;fontSize=13;strokeColor=#5E5E5E;strokeWidth=1.5;rounded=1;arcSize=12;edgeStyle=orthogonalEdgeStyle;startArrow=none;endArrow=block;endFill=1;exitX=1.009;exitY=0.5;exitPerimeter=0;entryX=0.5;entryY=-0.013;entryPerimeter=0;" edge="1" parent="1" source="nXR1kiyWYMV7j4rX-SNU-2" target="nXR1kiyWYMV7j4rX-SNU-16">
            <mxGeometry width="100" height="100" relative="1" as="geometry">
              <Array as="points" />
            </mxGeometry>
          </mxCell>
        </UserObject>
        <UserObject label="Control de asistencia escuela liderazgo" lucidchartObjectId="Gp05Q2LX1jUI" id="nXR1kiyWYMV7j4rX-SNU-18">
          <mxCell style="html=1;overflow=block;blockSpacing=1;whiteSpace=wrap;fontSize=16.7;fontColor=#333333;align=center;spacing=9;strokeColor=#5e5e5e;strokeOpacity=100;rounded=1;absoluteArcSize=1;arcSize=9;strokeWidth=2.3;" vertex="1" parent="1">
            <mxGeometry x="780" y="289" width="120" height="98" as="geometry" />
          </mxCell>
        </UserObject>
        <UserObject label="" lucidchartObjectId="Np05MKz.DV~d" id="nXR1kiyWYMV7j4rX-SNU-19">
          <mxCell style="html=1;jettySize=18;whiteSpace=wrap;fontSize=13;strokeColor=#5E5E5E;strokeWidth=1.5;rounded=1;arcSize=12;edgeStyle=orthogonalEdgeStyle;startArrow=none;endArrow=block;endFill=1;exitX=1.009;exitY=0.5;exitPerimeter=0;entryX=0.5;entryY=-0.011;entryPerimeter=0;" edge="1" parent="1" source="nXR1kiyWYMV7j4rX-SNU-2" target="nXR1kiyWYMV7j4rX-SNU-18">
            <mxGeometry width="100" height="100" relative="1" as="geometry">
              <Array as="points" />
            </mxGeometry>
          </mxCell>
        </UserObject>
        <UserObject label="Control de asistencia ruta de lider" lucidchartObjectId="nq05LOhYk1qm" id="nXR1kiyWYMV7j4rX-SNU-20">
          <mxCell style="html=1;overflow=block;blockSpacing=1;whiteSpace=wrap;fontSize=16.7;fontColor=#333333;align=center;spacing=9;strokeColor=#5e5e5e;strokeOpacity=100;rounded=1;absoluteArcSize=1;arcSize=9;strokeWidth=2.3;" vertex="1" parent="1">
            <mxGeometry x="930" y="289" width="120" height="90" as="geometry" />
          </mxCell>
        </UserObject>
        <UserObject label="" lucidchartObjectId="wq056-k-0uQy" id="nXR1kiyWYMV7j4rX-SNU-21">
          <mxCell style="html=1;jettySize=18;whiteSpace=wrap;fontSize=13;strokeColor=#5E5E5E;strokeWidth=1.5;rounded=1;arcSize=12;edgeStyle=orthogonalEdgeStyle;startArrow=none;endArrow=block;endFill=1;exitX=1.009;exitY=0.5;exitPerimeter=0;entryX=0.5;entryY=-0.013;entryPerimeter=0;" edge="1" parent="1" source="nXR1kiyWYMV7j4rX-SNU-2" target="nXR1kiyWYMV7j4rX-SNU-20">
            <mxGeometry width="100" height="100" relative="1" as="geometry">
              <Array as="points" />
            </mxGeometry>
          </mxCell>
        </UserObject>
        <UserObject label="Datos de bautismo en agua año 2022" lucidchartObjectId="9q056N6MGTyJ" id="nXR1kiyWYMV7j4rX-SNU-22">
          <mxCell style="html=1;overflow=block;blockSpacing=1;whiteSpace=wrap;fontSize=16.7;fontColor=#333333;align=center;spacing=9;strokeColor=#5e5e5e;strokeOpacity=100;rounded=1;absoluteArcSize=1;arcSize=9;strokeWidth=2.3;" vertex="1" parent="1">
            <mxGeometry x="-435" y="289" width="120" height="98" as="geometry" />
          </mxCell>
        </UserObject>
        <UserObject label="" lucidchartObjectId="fr05k8FUtM5d" id="nXR1kiyWYMV7j4rX-SNU-23">
          <mxCell style="html=1;jettySize=18;whiteSpace=wrap;fontSize=13;strokeColor=#5E5E5E;strokeWidth=1.5;rounded=1;arcSize=12;edgeStyle=orthogonalEdgeStyle;startArrow=none;endArrow=block;endFill=1;exitX=-0.009;exitY=0.5;exitPerimeter=0;entryX=0.5;entryY=-0.011;entryPerimeter=0;" edge="1" parent="1" source="nXR1kiyWYMV7j4rX-SNU-2" target="nXR1kiyWYMV7j4rX-SNU-22">
            <mxGeometry width="100" height="100" relative="1" as="geometry">
              <Array as="points" />
            </mxGeometry>
          </mxCell>
        </UserObject>
      </root>
    </mxGraphModel>
  </diagram>
</mxfile>
